<svg width="42" height="38" viewBox="0 0 42 38" fill="none" xmlns="http://www.w3.org/2000/svg">
<path d="M31.2936 4.77901H19.1337C13.6172 4.77901 9.14526 9.25099 9.14526 14.7675V26.9273C9.14526 32.4438 13.6172 36.9158 19.1337 36.9158H31.2936C36.8101 36.9158 41.282 32.4438 41.282 26.9273V14.7675C41.282 9.25099 36.8101 4.77901 31.2936 4.77901Z" fill="url(#paint0_linear_1_133)" stroke="#FFB801" stroke-width="0.868561"/>
<path d="M33.0015 26.6825C33.0005 25.91 32.6932 25.1694 32.1469 24.6233C31.6006 24.0771 30.8599 23.77 30.0874 23.7693H20.8937C20.1212 23.77 19.3806 24.0771 18.8343 24.6233C18.288 25.1694 17.9806 25.91 17.9797 26.6825C17.9797 30.3635 19.5796 29.5488 16.5275 26.6825C16.5288 25.525 16.9893 24.4151 17.8079 23.5967C18.6264 22.7783 19.7362 22.3182 20.8937 22.317H30.0883C31.2458 22.3182 32.3556 22.7783 33.1741 23.5967C33.9927 24.4151 34.4532 25.525 34.4546 26.6825H33.0015Z" fill="white"/>
<path d="M25.491 20.0867C24.6214 20.0867 23.7714 19.8287 23.0484 19.3456C22.3253 18.8625 21.7618 18.1758 21.429 17.3725C21.0963 16.5691 21.0092 15.6852 21.1788 14.8323C21.3485 13.9794 21.7672 13.1958 22.3821 12.5809C22.997 11.9661 23.7804 11.5474 24.6333 11.3778C25.4861 11.2081 26.3702 11.2952 27.1735 11.628C27.9769 11.9608 28.6636 12.5242 29.1467 13.2472C29.6298 13.9702 29.8877 14.8205 29.8877 15.69C29.8863 16.8557 29.4226 17.9732 28.5984 18.7974C27.7742 19.6217 26.6567 20.0853 25.491 20.0867ZM25.491 12.7455C24.9087 12.7455 24.3394 12.9182 23.8552 13.2417C23.371 13.5652 22.9936 14.0252 22.7707 14.5632C22.5479 15.1012 22.4896 15.6933 22.6032 16.2645C22.7168 16.8356 22.9972 17.3602 23.409 17.772C23.8208 18.1837 24.3454 18.4641 24.9166 18.5777C25.4878 18.6914 26.0798 18.6331 26.6178 18.4102C27.1558 18.1874 27.6157 17.81 27.9392 17.3258C28.2628 16.8416 28.4354 16.2724 28.4354 15.69C28.4348 14.9093 28.1243 14.1608 27.5723 13.6088C27.0202 13.0567 26.2717 12.7462 25.491 12.7455Z" fill="white"/>
<path d="M17.9814 26.3228C17.9824 27.0953 18.2897 27.8359 18.836 28.382C19.3823 28.9282 20.123 29.2353 20.8955 29.236H30.0892C30.8617 29.2353 31.6023 28.9282 32.1486 28.382C32.695 27.8359 33.0023 27.0953 33.0032 26.3228C33.0032 22.6418 31.2843 25.152 34.4554 26.3228C34.4541 27.4803 33.9936 28.59 33.175 29.4084C32.3565 30.2268 31.2467 30.6871 30.0892 30.6882H20.8946C19.7371 30.6871 18.6273 30.2268 17.8088 29.4084C16.9902 28.59 16.5297 27.4803 16.5283 26.3228H17.9814Z" fill="white"/>
<g filter="url(#filter0_d_1_133)">
<path d="M11.3161 13.8989C14.1943 13.8989 16.5275 11.5657 16.5275 8.68753C16.5275 5.80938 14.1943 3.47617 11.3161 3.47617C8.43795 3.47617 6.10474 5.80938 6.10474 8.68753C6.10474 11.5657 8.43795 13.8989 11.3161 13.8989Z" fill="#FFB801"/>
</g>
<defs>
<filter id="filter0_d_1_133" x="0.893368" y="0.870481" width="20.8455" height="20.8455" filterUnits="userSpaceOnUse" color-interpolation-filters="sRGB">
<feFlood flood-opacity="0" result="BackgroundImageFix"/>
<feColorMatrix in="SourceAlpha" type="matrix" values="0 0 0 0 0 0 0 0 0 0 0 0 0 0 0 0 0 0 127 0" result="hardAlpha"/>
<feOffset dy="2.60568"/>
<feGaussianBlur stdDeviation="2.60568"/>
<feColorMatrix type="matrix" values="0 0 0 0 1 0 0 0 0 0.745098 0 0 0 0 0.168627 0 0 0 0.529 0"/>
<feBlend mode="normal" in2="BackgroundImageFix" result="effect1_dropShadow_1_133"/>
<feBlend mode="normal" in="SourceGraphic" in2="effect1_dropShadow_1_133" result="shape"/>
</filter>
<linearGradient id="paint0_linear_1_133" x1="17.6958" y1="18.4875" x2="23.9375" y2="41.5998" gradientUnits="userSpaceOnUse">
<stop stop-color="#05081A"/>
<stop offset="1" stop-color="#201942"/>
</linearGradient>
</defs>
</svg>
