<svg width="91" height="63" viewBox="0 0 91 63" fill="none" xmlns="http://www.w3.org/2000/svg">
<path d="M88.5133 37.0765C87.1021 34.5377 84.9696 32.4745 82.3856 31.1477C79.5096 29.6657 76.3084 28.927 73.0738 28.9989H61.336C61.668 29.9996 61.8295 31.0489 61.8138 32.1031C61.8912 33.9113 61.4194 35.7005 60.4605 37.2355H72.1991C74.5888 37.0983 76.9354 37.9141 78.7246 39.5042C79.544 40.3323 80.1799 41.3236 80.5913 42.4135C81.0026 43.5035 81.1802 44.6677 81.1123 45.8308C81.1123 48.576 80.3164 50.6849 78.7246 52.1574C76.9353 53.7471 74.5887 54.5626 72.1991 54.4252H29.1697V49.0939H19.7762V57.9194C19.7762 59.2193 20.2926 60.466 21.2118 61.3851C22.131 62.3043 23.3776 62.8207 24.6775 62.8207H73.0712C76.3123 62.8991 79.5194 62.1446 82.3856 60.6293C84.94 59.2213 87.0489 57.1259 88.4734 54.5806C89.9364 51.8982 90.6769 48.8814 90.6222 45.8264C90.6708 42.777 89.9452 39.765 88.5133 37.0722" fill="#F0F1F3"/>
<path d="M71.0841 28.9989C70.7816 27.0364 70.149 25.1393 69.2132 23.388C67.7927 20.8463 65.6637 18.7725 63.0855 17.4192C60.1999 15.9686 57.0036 15.2447 53.7745 15.3104H6.279C5.51746 15.3103 4.76335 15.4602 4.05974 15.7515C3.35613 16.0429 2.7168 16.47 2.17826 17.0084C1.63973 17.5469 1.21254 18.1861 0.921078 18.8897C0.629621 19.5933 0.479614 20.3473 0.479614 21.1089V44.9717C0.479845 46.0649 0.914249 47.1131 1.68729 47.886C2.46032 48.6589 3.50869 49.0931 4.60181 49.0931H19.7782V44.382C19.7782 43.4046 19.3899 42.4672 18.6988 41.7761C18.0077 41.085 17.0703 40.6967 16.0929 40.6967H9.8705V23.507H52.8999C55.2894 23.3698 57.636 24.1853 59.4254 25.7748C60.3439 26.6552 61.0046 27.7697 61.3362 28.998C61.6682 29.9984 61.8297 31.0475 61.8139 32.1014C61.8919 33.9099 61.4201 35.6996 60.4607 37.2346C60.1723 37.6899 59.8244 38.1047 59.4263 38.468C57.6223 40.0287 55.2826 40.8278 52.9008 40.6967H32.3028C31.4719 40.6969 30.675 41.0272 30.0875 41.6149C29.5 42.2025 29.1699 42.9995 29.1699 43.8305V49.0931H53.7754C57.0152 49.1721 60.2211 48.4184 63.0864 46.9043C65.6493 45.5081 67.7611 43.4102 69.1741 40.8565C69.8144 39.72 70.2966 38.5015 70.6073 37.2346C71.0952 35.5677 71.3363 33.8382 71.323 32.1014C71.3255 31.0623 71.2456 30.0254 71.0841 28.9989Z" fill="#F0F1F3"/>
<path d="M24.7463 45.2671C23.9516 41.2309 23.6762 40.6559 23.3071 40.1729C22.8251 39.8047 22.2492 39.5293 18.2139 38.7346C22.2492 37.9399 22.8251 37.6637 23.3071 37.2954C23.6754 36.8125 23.9516 36.2375 24.7463 32.2013C25.541 36.2375 25.8164 36.8125 26.1855 37.2954C26.6676 37.6637 27.2434 37.939 31.2796 38.7346C27.2434 39.5293 26.6684 39.8047 26.1855 40.1729C25.8172 40.6559 25.541 41.2309 24.7463 45.2671Z" fill="#FFBE2B"/>
<path d="M81.9749 24.2485C80.9231 18.9042 80.5574 18.1434 80.0693 17.5041C79.4309 17.0168 78.6692 16.6512 73.3258 15.5993C78.6692 14.5466 79.4309 14.181 80.0693 13.6937C80.5574 13.0545 80.9231 12.2936 81.9749 6.94934C83.0268 12.2936 83.3924 13.0545 83.8806 13.6937C84.519 14.181 85.2807 14.5466 90.6249 15.5993C85.2807 16.6512 84.519 17.0168 83.8806 17.5041C83.3924 18.1434 83.0268 18.9042 81.9749 24.2485Z" fill="#FFBE2B"/>
<path d="M76.3336 9.56547C75.7516 6.61236 75.5519 6.19023 75.28 5.83586C74.9274 5.5666 74.5052 5.36423 71.5513 4.78316C74.5044 4.20123 74.9265 4.00146 75.28 3.7296C75.5501 3.3761 75.7516 2.95485 76.3336 0C76.9155 2.95311 77.1153 3.37523 77.3871 3.7296C77.7398 3.99886 78.1619 4.20123 81.1167 4.78316C78.1636 5.3651 77.7406 5.56487 77.3871 5.83586C77.117 6.18936 76.9155 6.61062 76.3336 9.56547Z" fill="#FFBE2B"/>
</svg>
