<svg width="42" height="42" viewBox="0 0 42 42" fill="none" xmlns="http://www.w3.org/2000/svg">
<g clip-path="url(#clip0_1_165)">
<path d="M35 0H7C3.13401 0 0 3.13401 0 7V35C0 38.866 3.13401 42 7 42H35C38.866 42 42 38.866 42 35V7C42 3.13401 38.866 0 35 0Z" fill="url(#paint0_linear_1_165)"/>
<path d="M35 0.5H7C3.41015 0.5 0.5 3.41015 0.5 7V35C0.5 38.5899 3.41015 41.5 7 41.5H35C38.5899 41.5 41.5 38.5899 41.5 35V7C41.5 3.41015 38.5899 0.5 35 0.5Z" stroke="#FFB801"/>
<path d="M29.1721 9.00101H16.8281C16.0709 9.00121 15.3308 9.22589 14.7013 9.64664C14.0718 10.0674 13.5812 10.6653 13.2915 11.3649C13.0018 12.0644 12.9259 12.8341 13.0736 13.5767C13.2213 14.3193 13.5858 15.0015 14.1211 15.537L20.0001 21.415V25.001C20.0001 25.1563 20.0362 25.3094 20.1056 25.4482C20.1751 25.5871 20.2759 25.7079 20.4001 25.801L24.4001 28.801C24.5486 28.9124 24.7253 28.9803 24.9103 28.997C25.0952 29.0136 25.2812 28.9785 25.4473 28.8954C25.6134 28.8124 25.7531 28.6847 25.8507 28.5267C25.9484 28.3688 26.0001 28.1867 26.0001 28.001V21.415L31.8791 15.536C32.414 15.0005 32.7782 14.3184 32.9257 13.5759C33.0731 12.8335 32.9972 12.064 32.7076 11.3647C32.4179 10.6653 31.9274 10.0676 31.2981 9.64686C30.6689 9.22615 29.929 9.00141 29.1721 9.00101ZM30.4651 14.123L24.2931 20.294C24.1055 20.4815 24.0001 20.7358 24.0001 21.001V26.001L22.0001 24.501V21.001C22 20.7358 21.8946 20.4815 21.7071 20.294L15.5351 14.123C15.2794 13.8672 15.1053 13.5414 15.0348 13.1867C14.9643 12.832 15.0005 12.4643 15.1389 12.1302C15.2772 11.796 15.5116 11.5104 15.8122 11.3094C16.1129 11.1085 16.4664 11.0011 16.8281 11.001H29.1721C29.5337 11.0011 29.8872 11.1085 30.1879 11.3094C30.4886 11.5104 30.7229 11.796 30.8613 12.1302C30.9997 12.4643 31.0359 12.832 30.9654 13.1867C30.8948 13.5414 30.7207 13.8672 30.4651 14.123ZM22.0001 30.001V32.001C22.0001 32.1867 21.9484 32.3688 21.8507 32.5267C21.7531 32.6847 21.6134 32.8124 21.4473 32.8954C21.2812 32.9785 21.0952 33.0136 20.9103 32.997C20.7253 32.9803 20.5486 32.9124 20.4001 32.801L16.4001 29.801C16.2759 29.7079 16.1751 29.5871 16.1056 29.4482C16.0362 29.3094 16.0001 29.1563 16.0001 29.001V25.415L10.1211 19.537C9.74686 19.1628 9.45433 18.715 9.26193 18.222C9.06953 17.729 8.98145 17.2014 9.00325 16.6726C9.02505 16.1439 9.15626 15.6253 9.38859 15.1498C9.62092 14.6743 9.94933 14.2522 10.3531 13.91C10.5553 13.7383 10.8175 13.6539 11.0819 13.6755C11.3463 13.6971 11.5913 13.8228 11.7631 14.025C11.9348 14.2272 12.0192 14.4894 11.9976 14.7538C11.976 15.0183 11.8503 15.2633 11.6481 15.435C11.4551 15.5985 11.2982 15.8002 11.1871 16.0274C11.0761 16.2546 11.0133 16.5023 11.0028 16.755C10.9922 17.0076 11.0342 17.2597 11.126 17.4954C11.2178 17.731 11.3574 17.945 11.5361 18.124L17.7081 24.295C17.895 24.4824 18 24.7363 18.0001 25.001V28.501L20.0001 30.001C20.0001 29.7358 20.1054 29.4814 20.293 29.2939C20.4805 29.1064 20.7348 29.001 21.0001 29.001C21.2653 29.001 21.5196 29.1064 21.7072 29.2939C21.8947 29.4814 22.0001 29.7358 22.0001 30.001Z" fill="white"/>
</g>
<defs>
<linearGradient id="paint0_linear_1_165" x1="21" y1="0" x2="21" y2="42" gradientUnits="userSpaceOnUse">
<stop stop-color="#05081A"/>
<stop offset="1" stop-color="#201942"/>
</linearGradient>
<clipPath id="clip0_1_165">
<rect width="42" height="42" fill="white"/>
</clipPath>
</defs>
</svg>
