<svg width="42" height="42" viewBox="0 0 42 42" fill="none" xmlns="http://www.w3.org/2000/svg">
<path d="M35 0H7C3.13401 0 0 3.13401 0 7V35C0 38.866 3.13401 42 7 42H35C38.866 42 42 38.866 42 35V7C42 3.13401 38.866 0 35 0Z" fill="url(#paint0_linear_1_156)"/>
<path d="M35 0.5H7C3.41015 0.5 0.5 3.41015 0.5 7V35C0.5 38.5899 3.41015 41.5 7 41.5H35C38.5899 41.5 41.5 38.5899 41.5 35V7C41.5 3.41015 38.5899 0.5 35 0.5Z" stroke="#FFB801"/>
<path d="M30.5336 9.83594H27.1335C26.9492 9.84285 26.7747 9.92093 26.6467 10.0538C26.5187 10.1867 26.4473 10.364 26.4473 10.5484C26.4473 10.7329 26.5187 10.9102 26.6467 11.0431C26.7747 11.1759 26.9492 11.254 27.1335 11.2609H30.5336C30.8514 11.2623 31.1559 11.3891 31.3806 11.6139C31.6054 11.8386 31.7322 12.1431 31.7336 12.4609V15.8609C31.7405 16.0453 31.8186 16.2198 31.9514 16.3478C32.0843 16.4757 32.2616 16.5472 32.446 16.5472C32.6305 16.5472 32.8078 16.4757 32.9407 16.3478C33.0736 16.2198 33.1517 16.0453 33.1586 15.8609V12.4609C33.1567 11.7653 32.8795 11.0987 32.3877 10.6068C31.8958 10.1149 31.2292 9.83779 30.5336 9.83594Z" fill="white"/>
<path d="M9.54894 16.5829C9.73804 16.5829 9.91939 16.5078 10.0531 16.3741C10.1868 16.2404 10.2619 16.059 10.2619 15.8699V12.4699C10.2633 12.1521 10.3901 11.8476 10.6149 11.6229C10.8396 11.3981 11.1441 11.2713 11.4619 11.2699H14.8619C15.0521 11.271 15.2349 11.1965 15.3701 11.0628C15.5053 10.929 15.5819 10.7471 15.5829 10.5569C15.584 10.3668 15.5095 10.184 15.3758 10.0488C15.242 9.91356 15.0601 9.837 14.8699 9.83594H11.4699C10.7721 9.83541 10.1025 10.1121 9.6086 10.6051C9.11466 11.0981 8.83673 11.7671 8.83594 12.4649V15.8649C8.83594 16.054 8.91106 16.2354 9.04477 16.3691C9.17848 16.5028 9.35984 16.5779 9.54894 16.5779V16.5829Z" fill="white"/>
<path d="M14.8707 32.7379H11.4707C11.1528 32.7366 10.8484 32.6098 10.6236 32.385C10.3989 32.1603 10.272 31.8558 10.2707 31.5379V28.1379C10.2638 27.9536 10.1857 27.7791 10.0528 27.6511C9.91998 27.5231 9.74268 27.4516 9.5582 27.4516C9.37373 27.4516 9.19643 27.5231 9.06356 27.6511C8.9307 27.7791 8.85261 27.9536 8.8457 28.1379V31.5379C8.8465 32.235 9.12374 32.9032 9.6166 33.396C10.1095 33.8889 10.7777 34.1662 11.4747 34.1669H14.8747C15.0591 34.16 15.2335 34.0819 15.3615 33.9491C15.4895 33.8162 15.561 33.6389 15.561 33.4545C15.561 33.27 15.4895 33.0927 15.3615 32.9598C15.2335 32.8269 15.0591 32.7488 14.8747 32.7419L14.8707 32.7379Z" fill="white"/>
<path d="M32.4505 27.4159C32.3568 27.4159 32.2641 27.4344 32.1776 27.4702C32.0911 27.506 32.0125 27.5586 31.9463 27.6248C31.8801 27.691 31.8276 27.7696 31.7917 27.8561C31.7559 27.9426 31.7375 28.0353 31.7375 28.129V31.529C31.7362 31.8468 31.6093 32.1513 31.3846 32.376C31.1598 32.6008 30.8553 32.7276 30.5375 32.7289H27.1375C26.9531 32.7358 26.7786 32.8139 26.6507 32.9468C26.5227 33.0797 26.4512 33.257 26.4512 33.4415C26.4512 33.6259 26.5227 33.8032 26.6507 33.9361C26.7786 34.069 26.9531 34.147 27.1375 34.154H30.5375C31.2345 34.1532 31.9027 33.8759 32.3956 33.383C32.8884 32.8902 33.1657 32.222 33.1665 31.525V28.125C33.1654 27.936 33.0894 27.7552 32.9552 27.6223C32.8209 27.4894 32.6394 27.4151 32.4505 27.4159Z" fill="white"/>
<path d="M8.88477 21.9999C8.88477 22.189 8.95989 22.3704 9.0936 22.5041C9.22731 22.6378 9.40867 22.7129 9.59777 22.7129H32.4038C32.5881 22.706 32.7626 22.628 32.8906 22.4951C33.0186 22.3622 33.0901 22.1849 33.0901 22.0004C33.0901 21.816 33.0186 21.6387 32.8906 21.5058C32.7626 21.3729 32.5881 21.2949 32.4038 21.2879H9.59777C9.40884 21.2879 9.22764 21.3629 9.09395 21.4964C8.96027 21.6299 8.88503 21.811 8.88477 21.9999Z" fill="white"/>
<defs>
<linearGradient id="paint0_linear_1_156" x1="11.1748" y1="17.9158" x2="19.3322" y2="48.1217" gradientUnits="userSpaceOnUse">
<stop stop-color="#05081A"/>
<stop offset="1" stop-color="#201942"/>
</linearGradient>
</defs>
</svg>
