<svg width="32" height="32" viewBox="0 0 32 32" fill="none" xmlns="http://www.w3.org/2000/svg">
<g filter="url(#filter0_b_1_51)">
<circle cx="16" cy="16" r="16" fill="#EAEAEA" fill-opacity="0.1"/>
</g>
<path d="M15.9258 21.0047L11.121 23.531C11.0062 23.5912 10.8722 23.4937 10.894 23.366L11.8116 18.0156C11.8203 17.9649 11.8036 17.9131 11.7667 17.8772L7.8794 14.0881C7.78665 13.9975 7.8378 13.8399 7.96604 13.8213L13.3382 13.0407C13.3891 13.0334 13.4331 13.0013 13.4559 12.9552L15.8584 8.08727C15.9158 7.97091 16.0815 7.97091 16.1389 8.08727L18.5414 12.9552C18.5642 13.0013 18.6082 13.0334 18.6591 13.0407L24.0313 13.8213C24.1595 13.8399 24.2106 13.9975 24.1179 14.0881L20.2306 17.8772C20.1937 17.9131 20.1769 17.9649 20.1855 18.0156L21.1032 23.366C21.1252 23.4937 20.9911 23.5912 20.8763 23.531L16.0714 21.0047C16.0258 20.9808 15.9713 20.9808 15.9258 21.0047Z" fill="#FFB801"/>
<path d="M20.8756 23.5303L16.0712 21.0045C16.0243 20.9811 15.9711 20.9811 15.9242 21.0045L11.1198 23.5303C11.0056 23.5913 10.8711 23.4943 10.893 23.3661L10.9258 23.1753L15.9977 20.5088L21.0695 23.1753L21.1023 23.3661C21.1242 23.4943 20.9898 23.5913 20.8756 23.5303Z" fill="#FFB801"/>
<path d="M24.1199 14.0891L20.232 17.877C20.1944 17.9129 20.1788 17.9646 20.1866 18.0162L20.1335 17.7076C20.116 17.6061 20.1494 17.5024 20.2232 17.4305L23.9385 13.8076L24.0323 13.8217C24.1606 13.8405 24.2122 13.9984 24.1199 14.0891Z" fill="#FFB801"/>
<path d="M7.87891 14.0889L11.7669 17.8767C11.8044 17.9127 11.82 17.9643 11.8122 18.0159L11.8655 17.7073C11.8831 17.6058 11.8496 17.5022 11.7758 17.4302L8.06034 13.8074L7.9665 13.8214C7.83826 13.8402 7.78666 13.9982 7.87891 14.0889Z" fill="#FFB801"/>
<defs>
<filter id="filter0_b_1_51" x="-30" y="-30" width="92" height="92" filterUnits="userSpaceOnUse" color-interpolation-filters="sRGB">
<feFlood flood-opacity="0" result="BackgroundImageFix"/>
<feGaussianBlur in="BackgroundImageFix" stdDeviation="15"/>
<feComposite in2="SourceAlpha" operator="in" result="effect1_backgroundBlur_1_51"/>
<feBlend mode="normal" in="SourceGraphic" in2="effect1_backgroundBlur_1_51" result="shape"/>
</filter>
</defs>
</svg>
