<svg width="14" height="14" viewBox="0 0 14 14" fill="none" xmlns="http://www.w3.org/2000/svg">
<path d="M11.516 6.258C11.516 7.29793 11.2076 8.31452 10.6299 9.17919C10.0521 10.0439 9.23093 10.7178 8.27015 11.1158C7.30938 11.5137 6.25217 11.6179 5.23222 11.415C4.21227 11.2121 3.27538 10.7113 2.54003 9.97597C1.80469 9.24062 1.30391 8.30374 1.10103 7.28378C0.898152 6.26383 1.00228 5.20662 1.40024 4.24585C1.79821 3.28508 2.47214 2.46389 3.33681 1.88613C4.20149 1.30838 5.21807 1 6.258 1C7.65251 1 8.9899 1.55397 9.97597 2.54003C10.962 3.5261 11.516 4.86349 11.516 6.258Z" stroke="white" stroke-width="1.5" stroke-linecap="round" stroke-linejoin="round"/>
<path d="M12.8297 12.83L9.9707 9.97101" stroke="white" stroke-width="1.5" stroke-linecap="round" stroke-linejoin="round"/>
</svg>
